<svg width="102" height="153" viewBox="0 0 102 153" fill="none" xmlns="http://www.w3.org/2000/svg">
<path d="M41.3478 2.1427C41.4266 1.31803 40.8219 0.585613 39.9973 0.506803C39.1726 0.427993 38.4402 1.03263 38.3614 1.8573L41.3478 2.1427ZM31.6646 41.6035L30.2765 42.172L31.6646 41.6035ZM41.1006 59.0552L39.7544 59.7168L41.1006 59.0552ZM44.1737 67.9875L42.7318 68.4009L44.1737 67.9875ZM47 88L48.4933 88.1412L47 88ZM2.50006 82L1.06639 81.5589L1.03904 81.6477L1.02288 81.7393L2.50006 82ZM11.3294 64.8137L12.3991 65.8652L11.3294 64.8137ZM28.8084 52.8026L29.4222 54.1713L28.8084 52.8026ZM51.4999 49.5L51.6569 48.0082L51.4999 49.5ZM72.8005 59.5387L73.733 58.3638L73.7135 58.3483L73.6934 58.3334L72.8005 59.5387ZM98.4999 100.5L99.9908 100.334L99.9892 100.321L98.4999 100.5ZM89.8879 152.061C90.4737 152.646 91.4235 152.646 92.0093 152.061L101.555 142.515C102.141 141.929 102.141 140.979 101.555 140.393C100.969 139.808 100.02 139.808 99.4339 140.393L90.9486 148.879L82.4633 140.393C81.8775 139.808 80.9278 139.808 80.342 140.393C79.7562 140.979 79.7562 141.929 80.342 142.515L89.8879 152.061ZM9.6294 107.324L10.1559 105.919L9.6294 107.324ZM40.6551 99.1705L39.5062 98.2061L40.6551 99.1705ZM15.7493 108.597L15.6147 110.091L15.7493 108.597ZM38.3614 1.8573C38.041 5.20964 37.0388 8.39022 35.7618 11.5538C35.1232 13.136 34.4223 14.6987 33.7081 16.276C32.9977 17.8448 32.2713 19.4341 31.6031 21.0287C28.9218 27.4274 27.0295 34.2441 30.2765 42.172L33.0527 41.035C30.2641 34.2262 31.7872 28.3518 34.37 22.1882C35.0178 20.6423 35.723 19.0991 36.441 17.5135C37.1551 15.9364 37.8793 14.3228 38.5437 12.6768C39.8728 9.3841 40.9886 5.90101 41.3478 2.1427L38.3614 1.8573ZM30.2765 42.172C31.6382 45.4966 33.2762 48.3745 34.9282 51.1626C36.5913 53.9694 38.2508 56.6575 39.7544 59.7168L42.4468 58.3936C40.8774 55.2003 39.1368 52.3803 37.5091 49.6333C35.8704 46.8676 34.3269 44.146 33.0527 41.035L30.2765 42.172ZM39.7544 59.7168C41.1565 62.5695 41.8579 65.3529 42.7318 68.4009L45.6156 67.5741C44.7764 64.6471 43.996 61.5457 42.4468 58.3936L39.7544 59.7168ZM42.7318 68.4009C43.2428 70.1835 43.8904 71.9658 44.4007 73.5429C44.9275 75.1713 45.3441 76.6802 45.5092 78.1656L48.4908 77.8344C48.2915 76.0403 47.7985 74.2992 47.255 72.6194C46.6949 70.8882 46.1115 69.304 45.6156 67.5741L42.7318 68.4009ZM45.5092 78.1656C45.7613 80.4348 45.875 81.5271 45.875 82.7052C45.875 83.8956 45.759 85.1913 45.5067 87.8588L48.4933 88.1412C48.741 85.5225 48.875 84.0682 48.875 82.7052C48.875 81.3298 48.7387 80.0652 48.4908 77.8344L45.5092 78.1656ZM45.5067 87.8588C45.4029 88.9553 44.7872 90.5237 43.6824 92.4098C42.6005 94.2567 41.1356 96.2649 39.5062 98.2061L41.804 100.135C43.5093 98.1032 45.0817 95.9563 46.2709 93.9262C47.4371 91.9353 48.3265 89.905 48.4933 88.1412L45.5067 87.8588ZM15.8838 107.103C13.7925 106.915 11.8423 106.551 10.1559 105.919L9.10292 108.728C11.1279 109.487 13.3661 109.889 15.6147 110.091L15.8838 107.103ZM3.30411 93.4786C3.10771 90.6192 3.15655 86.9109 3.97723 82.2607L1.02288 81.7393C0.156629 86.6477 0.0994025 90.6011 0.311161 93.6842L3.30411 93.4786ZM3.93372 82.4411C5.94715 75.8975 7.03399 71.3234 12.3991 65.8652L10.2597 63.7622C4.30767 69.8174 3.05296 75.1025 1.06639 81.5589L3.93372 82.4411ZM12.3991 65.8652C17.5045 60.6714 22.0452 57.4795 29.4222 54.1713L28.1946 51.4339C20.4903 54.889 15.637 58.2917 10.2597 63.7622L12.3991 65.8652ZM29.4222 54.1713C36.0616 51.1938 44.2724 50.2475 51.3428 50.9918L51.6569 48.0082C44.1555 47.2186 35.3979 48.2036 28.1946 51.4339L29.4222 54.1713ZM51.3428 50.9918C60.385 51.9436 65.0812 55.6862 71.9075 60.7439L73.6934 58.3334C66.9185 53.3138 61.6148 49.0564 51.6569 48.0082L51.3428 50.9918ZM71.8679 60.7136C87.3122 72.9724 95.5635 88.6353 97.0106 100.679L99.9892 100.321C98.4324 87.3647 89.6876 71.0276 73.733 58.3638L71.8679 60.7136ZM97.0091 100.666C98.0116 109.689 98.579 117.55 95.6038 125.045L98.3921 126.152C101.676 117.879 100.988 109.311 99.9907 100.334L97.0091 100.666ZM95.6038 125.045C92.4613 132.962 89.4486 142.347 89.4486 151H92.4486C92.4486 142.945 95.2754 134.003 98.3921 126.152L95.6038 125.045ZM7.37664 104.387C6.32165 103.354 5.34819 101.545 4.60257 99.4275C3.86776 97.3412 3.41823 95.1402 3.30411 93.4786L0.311161 93.6842C0.445878 95.6456 0.958858 98.1127 1.77295 100.424C2.57622 102.705 3.73807 105.023 5.27751 106.53L7.37664 104.387ZM10.1559 105.919C9.67422 105.738 9.29846 105.612 9.0281 105.518C8.74449 105.419 8.59896 105.363 8.48048 105.304C8.28729 105.208 8.06406 105.06 7.37664 104.387L5.27751 106.53C5.99414 107.232 6.50195 107.672 7.14884 107.992C7.4504 108.142 7.75217 108.25 8.0409 108.351C8.34286 108.456 8.66445 108.564 9.10292 108.728L10.1559 105.919ZM39.5062 98.2061C33.8251 104.974 24.8776 107.913 15.8838 107.103L15.6147 110.091C25.3849 110.971 35.3724 107.797 41.804 100.135L39.5062 98.2061Z" fill="white"/>
</svg>
