<svg width="152" height="165" viewBox="0 0 152 165" fill="none" xmlns="http://www.w3.org/2000/svg">
<path d="M149.96 14.6048C149.96 10.304 142.778 6.82926 139.284 5.11521C133.039 2.0513 123.263 1.82466 117.016 4.52211C102.477 10.8002 97.5934 24.1424 92.3216 38.0053C89.9222 44.3147 89.4589 48.8296 88.1699 55.3669C85.5825 68.4889 78.9878 80.9351 72.1023 92.247C61.0743 110.364 48.3116 129.357 29.8304 140.558C24.3181 143.898 20.3167 144.655 14.0863 144.655C9.93969 144.655 6.74821 146.359 9.71895 142.607C10.6138 141.476 13.4258 137.592 12.6844 135.813C12.5152 135.407 3.81108 147.101 3.14093 148.699C-0.0641994 156.342 25.0135 161.329 30.5853 162.125" stroke="white" stroke-width="4" stroke-linecap="round"/>
</svg>
