<svg width="132" height="155" viewBox="0 0 132 155" fill="none" xmlns="http://www.w3.org/2000/svg">
<path d="M130.134 17.9996C130.41 18.4779 131.021 18.642 131.5 18.366C131.978 18.09 132.142 17.4785 131.866 17.0001L130.134 17.9996ZM0.0311913 150.752C-0.105687 151.287 0.217099 151.832 0.752153 151.969L9.47136 154.199C10.0064 154.336 10.5511 154.013 10.688 153.478C10.8249 152.943 10.5021 152.399 9.96704 152.262L2.21663 150.279L4.19935 142.529C4.33623 141.994 4.01344 141.449 3.47839 141.312C2.94333 141.175 2.39863 141.498 2.26175 142.033L0.0311913 150.752ZM64.5001 69.4998L65.4821 69.6883L65.4878 69.6586L65.4917 69.6286L64.5001 69.4998ZM74.4287 22.5509L75.2925 23.0548L74.4287 22.5509ZM77.8992 16.6017L78.7629 17.1056L77.8992 16.6017ZM108.297 2.13522L108.143 3.12334L108.297 2.13522ZM108.671 2.19334L108.824 1.20523L108.671 2.19334ZM63.518 69.3114L62.7601 73.2606L64.7242 73.6375L65.4821 69.6883L63.518 69.3114ZM14.5874 141.786L0.490196 150.14L1.50979 151.86L15.607 143.506L14.5874 141.786ZM77.0354 16.0978L73.565 22.047L75.2925 23.0548L78.7629 17.1056L77.0354 16.0978ZM67.2486 40.5713L63.5084 69.371L65.4917 69.6286L69.2319 40.8289L67.2486 40.5713ZM108.824 1.20523L108.451 1.14711L108.143 3.12334L108.517 3.18146L108.824 1.20523ZM73.565 22.047C70.2448 27.7386 68.0972 34.037 67.2486 40.5713L69.2319 40.8289C70.0462 34.5592 72.1068 28.5159 75.2925 23.0548L73.565 22.047ZM78.7629 17.1056C82.2549 11.1195 87.7833 6.58893 94.3389 4.34114L93.6902 2.44926C86.6806 4.85274 80.7692 9.69709 77.0354 16.0978L78.7629 17.1056ZM62.7601 73.2606C57.2548 101.946 39.7158 126.895 14.5874 141.786L15.607 143.506C41.2282 128.324 59.111 102.886 64.7242 73.6375L62.7601 73.2606ZM108.451 1.14711C103.498 0.376554 98.4317 0.823476 93.6902 2.44926L94.3389 4.34114C98.7732 2.82067 103.511 2.4027 108.143 3.12334L108.451 1.14711ZM131.866 17.0001C126.973 8.51844 118.5 2.71054 108.824 1.20523L108.517 3.18146C117.594 4.59368 125.543 10.0424 130.134 17.9996L131.866 17.0001Z" fill="white"/>
</svg>
